<?xml version="1.0" encoding="iso-8859-1"?>
<!-- Generator: Adobe Illustrator 19.0.0, SVG Export Plug-In . SVG Version: 6.00 Build 0)  -->
<svg version="1.1" id="Capa_1" xmlns="http://www.w3.org/2000/svg" xmlns:xlink="http://www.w3.org/1999/xlink" x="0px" y="0px"
	 viewBox="0 0 512 512" style="enable-background:new 0 0 512 512;" xml:space="preserve">
<path style="fill:#F7E4BA;" d="M105.931,476.69H26.483c-4.882,0-8.828-3.955-8.828-8.828v-88.276c0-4.873,3.946-8.828,8.828-8.828
	h441.379c4.882,0,8.828,3.955,8.828,8.828v26.483h-17.655v-17.655H35.31v70.621h70.621V476.69z"/>
<path style="fill:#B3E4E8;" d="M423.962,308.966H70.621c-29.255,0-52.966-23.711-52.966-52.966V52.966
	C17.655,23.711,41.366,0,70.621,0h353.103c29.228,0,52.93,23.676,52.966,52.904l0.238,203.034
	C476.963,285.21,453.235,308.966,423.962,308.966z"/>
<path style="fill:#DBDBDB;" d="M17.655,256c0,29.255,23.711,52.966,52.966,52.966h353.342c29.255,0,52.966-23.72,52.966-52.966
	H17.655z"/>
<polygon style="fill:#B9B9B9;" points="316.451,361.931 177.346,361.931 194.022,308.966 300.306,307.694 "/>
<g>
	<path style="fill:#DBDBDB;" d="M345.106,397.241H149.239c-9.295,0-16.825-7.53-16.825-16.825v-1.66
		c0-9.295,7.53-16.825,16.825-16.825h195.867c9.295,0,16.825,7.53,16.825,16.825v1.66
		C361.931,389.711,354.401,397.241,345.106,397.241z"/>
	<rect x="105.93" y="432.55" style="fill:#DBDBDB;" width="282.48" height="79.45"/>
	<path style="fill:#DBDBDB;" d="M467.862,485.517L467.862,485.517c-14.627,0-26.483-11.855-26.483-26.483v-26.483
		c0-14.627,11.855-26.483,26.483-26.483l0,0c14.627,0,26.483,11.855,26.483,26.483v26.483
		C494.345,473.662,482.489,485.517,467.862,485.517z"/>
</g>
<rect x="459.03" y="432.55" style="fill:#6C7175;" width="17.655" height="17.655"/>
<g>
	<rect x="432.55" y="211.86" style="fill:#6FBBC6;" width="17.655" height="17.655"/>
	<rect x="397.24" y="211.86" style="fill:#6FBBC6;" width="17.655" height="17.655"/>
	<rect x="361.93" y="211.86" style="fill:#6FBBC6;" width="17.655" height="17.655"/>
</g>
<g>
	<rect x="132.41" y="476.69" style="fill:#6C7175;" width="17.655" height="17.655"/>
	<rect x="132.41" y="450.21" style="fill:#6C7175;" width="17.655" height="17.655"/>
	<rect x="167.72" y="476.69" style="fill:#6C7175;" width="158.9" height="17.655"/>
	<rect x="167.72" y="450.21" style="fill:#6C7175;" width="17.655" height="17.655"/>
	<rect x="203.03" y="450.21" style="fill:#6C7175;" width="17.655" height="17.655"/>
	<rect x="238.34" y="450.21" style="fill:#6C7175;" width="17.655" height="17.655"/>
	<rect x="273.65" y="450.21" style="fill:#6C7175;" width="17.655" height="17.655"/>
	<rect x="308.97" y="450.21" style="fill:#6C7175;" width="17.655" height="17.655"/>
	<rect x="344.28" y="450.21" style="fill:#6C7175;" width="17.655" height="17.655"/>
	<rect x="344.28" y="476.69" style="fill:#6C7175;" width="17.655" height="17.655"/>
	<polygon style="fill:#6C7175;" points="308.568,335.448 300.676,308.966 194.022,308.966 185.679,335.448 	"/>
	<path style="fill:#6C7175;" d="M132.414,380.416c0,9.295,7.53,16.825,16.825,16.825h195.867c9.295,0,16.825-7.53,16.825-16.825
		v-0.83H132.414V380.416z"/>
</g>
<path style="fill:#B6E8EC;" d="M450.489,7.318C442.633,2.692,433.505,0,423.724,0H70.621C41.366,0,17.655,23.711,17.655,52.966
	v183.393C123.869,214.343,317.864,155.648,450.489,7.318z"/>
<g>
</g>
<g>
</g>
<g>
</g>
<g>
</g>
<g>
</g>
<g>
</g>
<g>
</g>
<g>
</g>
<g>
</g>
<g>
</g>
<g>
</g>
<g>
</g>
<g>
</g>
<g>
</g>
<g>
</g>
</svg>
