<svg id="Capa_1" enable-background="new 0 0 512 512" height="512" viewBox="0 0 512 512" width="512" xmlns="http://www.w3.org/2000/svg"><g><g><path d="m256 123.981c-135.14 1.959-229.91 107.012-253.414 135.862-3.448 4.232-3.448 10.29 0 14.522 23.504 28.849 118.274 133.902 253.414 135.862 135.14-1.959 229.91-107.012 253.414-135.862 3.448-4.232 3.448-10.29 0-14.522-23.504-28.85-118.274-133.903-253.414-135.862z" fill="#b3dafe"/><path d="m509.418 274.369c-23.51 28.844-118.28 133.902-253.418 135.858-3.81-.052-7.579-.196-11.317-.412 129.103-7.404 219.25-107.416 242.091-135.447 3.45-4.233 3.45-10.298 0-14.53-22.84-28.031-112.987-128.043-242.091-135.447 3.738-.216 7.507-.36 11.317-.412 135.138 1.957 229.908 107.015 253.418 135.859 3.44 4.233 3.44 10.298 0 14.531z" fill="#8ac9fe"/><path d="m256 155.744c-108.62 1.525-184.791 83.263-203.683 105.71-2.771 3.293-2.771 8.006 0 11.299 18.892 22.447 95.063 104.186 203.683 105.71 108.62-1.525 184.791-83.263 203.683-105.71 2.771-3.293 2.771-8.006 0-11.299-18.892-22.447-95.063-104.185-203.683-105.71z" fill="#eaf6ff"/><g><circle cx="256" cy="254.172" fill="#f47c7c" r="91.503"/><path d="m347.506 254.174c0 50.531-40.975 91.496-91.506 91.496-24.117 0-46.052-9.33-62.394-24.581 13.212 7.414 28.463 11.647 44.693 11.647 50.542 0 91.506-40.965 91.506-91.496 0-26.434-11.204-50.243-29.122-66.936 27.937 15.664 46.823 45.558 46.823 79.87z" fill="#ee6161"/><circle cx="256" cy="254.172" fill="#d83131" r="56.674"/><path d="m312.679 254.174c0 31.295-25.374 56.669-56.679 56.669-18.186 0-34.364-8.557-44.734-21.872 7.95 4.253 17.043 6.663 26.692 6.663 31.295 0 56.669-25.374 56.669-56.679 0-13.13-4.459-25.209-11.956-34.807 17.857 9.536 30.008 28.36 30.008 50.026z" fill="#ca2c2c"/><circle cx="256" cy="215.436" fill="#fdd5d5" r="25.802"/><path d="m281.806 215.434c0 14.252-11.554 25.806-25.806 25.806-10.061 0-18.773-5.756-23.026-14.159 1.699.35 3.46.535 5.262.535 14.252 0 25.806-11.554 25.806-25.806 0-4.191-.999-8.146-2.781-11.636 11.73 2.43 20.545 12.81 20.545 25.26z" fill="#f9c6c6"/></g><path d="m459.68 272.752c-18.886 22.449-95.059 104.183-203.68 105.707-3.717-.051-7.394-.196-11.039-.433 102.731-6.611 174.393-83.597 192.641-105.274 2.77-3.295 2.77-8.001 0-11.297-18.248-21.677-89.91-98.663-192.641-105.274 3.645-.237 7.322-.381 11.039-.432 108.621 1.524 184.794 83.257 203.68 105.707 2.77 3.294 2.77 8.001 0 11.296z" fill="#d8ecfe"/></g><g><path d="m63.636 175.906c-25.412 23.095-47.742 51.7-62.524 86.994 0 0 107.354-43.134 223.305-55.169 21.001-2.18 42.168-2.18 63.169 0 115.95 12.034 223.305 55.169 223.305 55.169-14.782-35.293-37.111-63.898-62.524-86.994-108.76-98.844-275.971-98.844-384.731 0z" fill="#ffcebf"/></g><g><path d="m510.892 262.901s-11.132-4.469-30.1-10.936c-14.201-26.836-32.891-49.368-53.631-68.223-78.098-70.973-186.338-90.981-281.428-60.016 99.858-41.531 218.663-24.138 302.632 52.179 25.414 23.099 47.74 51.706 62.527 86.996z" fill="#ffb09e"/></g></g></svg>