<?xml version="1.0" encoding="iso-8859-1"?>
<!-- Generator: Adobe Illustrator 19.0.0, SVG Export Plug-In . SVG Version: 6.00 Build 0)  -->
<svg version="1.1" id="Capa_1" xmlns="http://www.w3.org/2000/svg" xmlns:xlink="http://www.w3.org/1999/xlink" x="0px" y="0px"
	 viewBox="0 0 512 512" style="enable-background:new 0 0 512 512;" xml:space="preserve">
<polygon style="fill:#3B869E;" points="461.833,58.959 395.582,119.64 371.73,93.608 436.083,34.666 "/>
<polygon style="fill:#1F6C8C;" points="395.582,119.64 454.753,65.448 442.871,54.193 384.556,107.599 "/>
<rect x="353.1" y="343.62" style="fill:#B9B9B9;" width="70.62" height="136.38"/>
<path style="fill:#6C7175;" d="M353.103,374.846c9.375,8.413,21.725,13.568,35.31,13.568s25.935-5.155,35.31-13.568v-31.223h-70.621
	v31.223H353.103z"/>
<polyline style="fill:#B9B9B9;" points="344.276,282.483 289.103,221.422 327.751,184.832 416.415,282.483 344.276,282.483 "/>
<polygon style="fill:#6C7175;" points="327.751,184.832 289.103,221.422 323.169,259.125 361.86,222.402 "/>
<rect x="70.62" y="423.72" style="fill:#277BAA;" width="132.41" height="56.28"/>
<rect x="70.62" y="423.72" style="fill:#428DC5;" width="132.41" height="17.655"/>
<circle style="fill:#B9B9B9;" cx="388.41" cy="308.97" r="52.966"/>
<circle style="fill:#6C7175;" cx="388.41" cy="308.97" r="17.655"/>
<path style="fill:#62666A;" d="M450.207,512H44.138c-14.627,0-26.483-11.855-26.483-26.483l0,0
	c0-14.627,11.855-26.483,26.483-26.483h406.069V512z"/>
<path style="fill:#515457;" d="M17.655,485.517C17.655,500.144,29.51,512,44.138,512h406.069v-26.483H17.655z"/>
<g>
	
		<rect x="117.948" y="263.241" transform="matrix(0.0324 -0.9995 0.9995 0.0324 -157.3226 397.7714)" style="fill:#62666A;" width="17.656" height="33.794"/>
	
		<rect x="133.969" y="316.379" transform="matrix(0.7372 -0.6757 0.6757 0.7372 -179.8974 187.8988)" style="fill:#62666A;" width="35.251" height="17.655"/>
	
		<rect x="177.013" y="345.06" transform="matrix(0.0324 -0.9995 0.9995 0.0324 -166.0702 536.2266)" style="fill:#62666A;" width="33.794" height="17.647"/>
</g>
<path style="fill:#1F6C8C;" d="M219.939,334.433L219.939,334.433c-17.973,16.463-39.389,9.278-55.852-8.704l-11.926-13.021
	c-16.463-17.973-21.751-39.936-3.769-56.399l0,0l26.041-23.852l71.548,78.115L219.939,334.433z"/>
<polygon style="fill:#DBDBDB;" points="422.735,130.684 234.867,308.966 174.239,244.824 363.114,65.589 "/>
<path style="fill:#3B869E;" d="M494.345,65.095l-6.506,5.967c-14.38,13.171-36.714,12.191-49.885-2.189l-11.935-13.021
	c-13.171-14.38-12.191-36.714,2.189-49.885L434.723,0L494.345,65.095z"/>
<path style="fill:#1F6C8C;" d="M432.878,63.338l5.067,5.535c13.171,14.38,35.505,15.36,49.885,2.189l6.515-5.967l-1.615-1.757
	H432.878L432.878,63.338z"/>
<polygon style="fill:#B9B9B9;" points="219.03,292.211 234.867,308.966 422.735,130.684 404.886,111.192 "/>
<polygon style="fill:#3B869E;" points="240.022,304.075 212.78,326.621 148.392,256.318 174.433,232.474 "/>
<polygon style="fill:#1F6C8C;" points="186.077,308.966 219.939,334.433 245.981,310.59 216.964,278.908 "/>
<g>
</g>
<g>
</g>
<g>
</g>
<g>
</g>
<g>
</g>
<g>
</g>
<g>
</g>
<g>
</g>
<g>
</g>
<g>
</g>
<g>
</g>
<g>
</g>
<g>
</g>
<g>
</g>
<g>
</g>
</svg>
