<?xml version="1.0" encoding="iso-8859-1"?>
<!-- Generator: Adobe Illustrator 19.0.0, SVG Export Plug-In . SVG Version: 6.00 Build 0)  -->
<svg version="1.1" id="Capa_1" xmlns="http://www.w3.org/2000/svg" xmlns:xlink="http://www.w3.org/1999/xlink" x="0px" y="0px"
	 viewBox="0 0 512.01 512.01" style="enable-background:new 0 0 512.01 512.01;" xml:space="preserve">
<g>
	<path style="fill:#DBDBDB;" d="M368.493,102.921v105.245v57.407c0,15.854,12.849,28.703,28.703,28.703s28.703-12.85,28.703-28.703
		v-57.407V102.921H368.493z"/>
	<path style="fill:#DBDBDB;" d="M263.248,102.921v105.245v57.407c0,15.854,12.85,28.703,28.703,28.703s28.703-12.85,28.703-28.703
		v-57.407V102.921H263.248z"/>
</g>
<g>
	<rect x="368.49" y="102.92" style="fill:#B9B9B9;" width="57.41" height="19.14"/>
	<rect x="263.25" y="102.92" style="fill:#B9B9B9;" width="57.41" height="19.14"/>
</g>
<path style="fill:#5B3726;" d="M167.57,169.895v210.491h344.44V169.895H167.57z M473.739,342.115h-258.33V208.166h258.33V342.115z"
	/>
<path style="fill:#6F9935;" d="M368.493,246.437v19.136c0,15.854,12.849,28.703,28.703,28.703s28.703-12.85,28.703-28.703v-19.136
	H368.493z"/>
<path style="fill:#DC4D41;" d="M263.248,246.437v19.136c0,15.854,12.85,28.703,28.703,28.703s28.703-12.85,28.703-28.703v-19.136
	H263.248z"/>
<rect x="368.49" y="246.44" style="fill:#89B140;" width="57.41" height="19.14"/>
<rect x="263.25" y="246.44" style="fill:#EA6B65;" width="57.41" height="19.14"/>
<rect x="167.57" y="361.25" style="fill:#533222;" width="344.44" height="19.14"/>
<path style="fill:#EBEBEB;" d="M177.339,284.67l93.927,162.69c14.734,25.517-3.684,57.407-33.143,57.407H38.338
	c-29.459,0-47.877-31.889-33.143-57.407l95.4-162.652V179.463h76.542L177.339,284.67z"/>
<path style="fill:#FBB540;" d="M271.266,447.36l-38.663-66.974H44.471L5.186,447.36c-14.734,25.517,3.684,57.407,33.143,57.407
	h199.785C267.582,504.767,286,472.877,271.266,447.36z"/>
<path style="fill:#EBEBEB;" d="M177.138,189.031h9.568c10.572,0,19.136-8.563,19.136-19.136l0,0
	c0-10.572-8.563-19.136-19.136-19.136H91.028c-10.572,0-19.136,8.563-19.136,19.136l0,0c0,10.572,8.563,19.136,19.136,19.136h9.568
	H177.138z"/>
<circle style="fill:#8ACED8;" cx="81.46" cy="83.78" r="19.14"/>
<circle style="fill:#F790B0;" cx="167.57" cy="35.946" r="28.703"/>
<rect x="100.6" y="189.03" style="fill:#D9D9D9;" width="76.54" height="19.14"/>
<path style="fill:#EA9D2D;" d="M5.195,447.36c-14.734,25.517,3.684,57.407,33.143,57.407h199.785
	c29.459,0,47.877-31.889,33.143-57.407l-22.092-38.271H27.641L5.195,447.36z"/>
<circle style="fill:#FBB540;" cx="196.27" cy="437.79" r="19.14"/>
<circle style="fill:#B47923;" cx="91.03" cy="447.36" r="28.703"/>
<g>
</g>
<g>
</g>
<g>
</g>
<g>
</g>
<g>
</g>
<g>
</g>
<g>
</g>
<g>
</g>
<g>
</g>
<g>
</g>
<g>
</g>
<g>
</g>
<g>
</g>
<g>
</g>
<g>
</g>
</svg>
