<?xml version="1.0" encoding="iso-8859-1"?>
<!-- Generator: Adobe Illustrator 19.0.0, SVG Export Plug-In . SVG Version: 6.00 Build 0)  -->
<svg version="1.1" id="Capa_1" xmlns="http://www.w3.org/2000/svg" xmlns:xlink="http://www.w3.org/1999/xlink" x="0px" y="0px"
	 viewBox="0 0 512 512" style="enable-background:new 0 0 512 512;" xml:space="preserve">
<path style="fill:#F26B32;" d="M190,333.8c-13.3,4-27.4,6.1-41.9,6.1C66.3,339.9,0,272.7,0,189.8S66.3,39.7,148.1,39.7
	c72.9,0,133.5,53.3,145.8,123.6"/>
<path style="fill:#D85021;" d="M283.1,181H212c2.1-36.5,17.2-70.8,42.4-95.5c-4.1-4.3-8.4-8.2-12.9-12c-28.2,28-45,66.6-47.1,107.5
	h-35.5V40.2c-3.6-0.3-7.2-0.5-10.8-0.5c-2.3,0-4.6,0.2-6.9,0.4V181h-36c-2-41.9-17.8-81.7-44.5-112.1c-5.3,3.9-10.3,8.1-15,12.7
	c23.8,27,37.9,62.2,39.9,99.5H0.4C0.2,184,0,186.9,0,189.9s0.3,5.9,0.4,8.8h85.2c-2,37.2-16.1,72.5-39.8,99.5
	c4.7,4.6,9.7,8.8,15,12.7c26.7-30.5,42.5-70.3,44.5-112.2h36v140.9c2.3,0.1,4.5,0.4,6.9,0.4c3.6,0,7.2-0.1,10.8-0.4v-141h35.3
	c0.6,12.5,2.6,24.9,5.9,36.9c1.1,3.9,4.6,6.4,8.5,6.4c0.8,0,1.6-0.1,2.4-0.3c4.7-1.3,7.4-6.2,6.1-10.9c-2.9-10.4-4.7-21.2-5.3-32.2
	h60.5L283.1,181z"/>
<path style="fill:#FBB540;" d="M511.7,303.6l-4.6,3.8l-20.6,14.9l-50.4-36.6l19.2-59.2h28.8h1.6c-21.4-32.3-54.5-56.5-93.3-66.7
	l8.9,27.4L351,223.8l-50.4-36.6l8.9-27.4c-38.8,10.2-71.9,34.3-93.3,66.7h30.4l19.2,59.2l-50.4,36.6L190.3,304
	c-0.2,3.1-0.3,6.2-0.3,9.4c0,38.4,13.8,73.6,36.8,101.1l9.3-28.6h62.3l19.2,59.2l-23.4,17c17.7,6.6,36.8,10.2,56.8,10.2
	s39.2-3.6,56.8-10.2l-23.4-17l19.2-59.2h62.3l9.3,28.6c23-27.5,36.8-62.7,36.8-101.1C512,310.1,511.9,306.8,511.7,303.6z"/>
<g>
	<path style="fill:#6C7175;" d="M351,223.8l50.4-36.6l-8.9-27.4c-13.2-3.5-27.1-5.3-41.5-5.3c-14.3,0-28.2,1.9-41.5,5.3l-8.9,27.4
		L351,223.8z"/>
	<path style="fill:#6C7175;" d="M265.8,285.7l-19.2-59.2h-30.4c-14.9,22.5-24.2,49-25.9,77.5l25.2,18.3L265.8,285.7z"/>
	<path style="fill:#6C7175;" d="M298.4,385.8h-62.3l-9.3,28.6c17.7,21.2,40.9,37.7,67.4,47.6l23.4-17L298.4,385.8z"/>
	<path style="fill:#6C7175;" d="M403.7,385.8L384.5,445l23.4,17c26.5-9.9,49.7-26.4,67.4-47.6l-9.3-28.6H403.7z"/>
	<path style="fill:#6C7175;" d="M455.4,226.5l-19.2,59.2l50.4,36.6l20.6-14.9l4.6-3.8c-1.8-28.3-11-54.7-25.9-77.1h-1.6L455.4,226.5
		L455.4,226.5z"/>
	<rect x="342.2" y="213" style="fill:#6C7175;" width="17.7" height="56.3"/>
	
		<rect x="391.627" y="282.791" transform="matrix(-0.9476 0.3195 -0.3195 -0.9476 908.8805 434.1827)" style="fill:#6C7175;" width="54.401" height="17.7"/>
	
		<rect x="384.092" y="344.979" transform="matrix(-0.7974 0.6034 -0.6034 -0.7974 930.441 430.8946)" style="fill:#6C7175;" width="17.599" height="53.298"/>
	
		<rect x="282" y="362.198" transform="matrix(-0.5875 0.8092 -0.8092 -0.5875 790.9577 338.9146)" style="fill:#6C7175;" width="54.199" height="17.7"/>
	
		<rect x="274.176" y="265.018" transform="matrix(-0.2862 0.9582 -0.9582 -0.2862 643.9261 104.5335)" style="fill:#6C7175;" width="17.701" height="54.202"/>
	<polygon style="fill:#6C7175;" points="351,260.4 300.6,297.5 319.9,357.4 382.1,357.4 401.4,297.5 	"/>
</g>
<g>
</g>
<g>
</g>
<g>
</g>
<g>
</g>
<g>
</g>
<g>
</g>
<g>
</g>
<g>
</g>
<g>
</g>
<g>
</g>
<g>
</g>
<g>
</g>
<g>
</g>
<g>
</g>
<g>
</g>
</svg>
