<?xml version="1.0" encoding="iso-8859-1"?>
<!-- Generator: Adobe Illustrator 19.0.0, SVG Export Plug-In . SVG Version: 6.00 Build 0)  -->
<svg version="1.1" id="Capa_1" xmlns="http://www.w3.org/2000/svg" xmlns:xlink="http://www.w3.org/1999/xlink" x="0px" y="0px"
	 viewBox="0 0 512.004 512.004" style="enable-background:new 0 0 512.004 512.004;" xml:space="preserve">
<path style="fill:#F0F0F0;" d="M450.483,300.551c-24.836-13.411-58.415-10.155-83.295,3.167l-2.25,1.2
	c-30.535,16.348-47.907,49.751-43.77,84.133l0,0c3.353,27.827,20.354,52.16,45.331,64.865l22.657,8.126
	c-63.488,42.728-162.109,43.443-250.371-4.976c-115.613-63.4-169.67-187.112-120.757-276.292s182.304-110.055,297.917-46.637
	c6.899,3.785,13.578,7.782,20.028,11.972l54.463,45.375C421.298,224.358,442.04,262.384,450.483,300.551"/>
<path style="fill:#D9D9D9;" d="M156.44,430.616C42.538,368.133-11.554,247.165,33.645,158.32
	c-5.779,6.979-11.152,14.337-15.616,22.454c-48.922,89.18,5.144,212.883,120.757,276.31c88.262,48.419,186.883,47.704,250.371,4.976
	l-20.425-7.332C307.59,476.909,228.565,470.186,156.44,430.616z"/>
<circle style="fill:#515F91;" cx="247.39" cy="168.09" r="26.468"/>
<path style="fill:#69749A;" d="M262.78,155.365c-11.893-8.496-28.427-5.735-36.923,6.158c-2.462,3.441-3.864,7.279-4.491,11.196
	c1.173,6.573,4.791,12.714,10.649,16.904c11.893,8.496,28.427,5.735,36.923-6.158c2.462-3.441,3.864-7.288,4.491-11.196
	C272.264,165.696,268.647,159.555,262.78,155.365z"/>
<circle style="fill:#3B869E;" cx="141.52" cy="168.09" r="26.459"/>
<path style="fill:#6FBBC6;" d="M132.089,152.188c-9.14,3.494-15.122,11.531-16.578,20.539c0.291,1.606,0.697,3.211,1.297,4.8
	c5.214,13.649,20.504,20.495,34.162,15.281c9.14-3.494,15.122-11.531,16.578-20.539c-0.291-1.606-0.697-3.211-1.297-4.8
	C161.036,153.812,145.738,146.974,132.089,152.188z"/>
<circle style="fill:#6F9935;" cx="97.41" cy="265.14" r="26.459"/>
<path style="fill:#79A73A;" d="M87.975,249.238c-9.14,3.494-15.122,11.531-16.578,20.539c0.291,1.606,0.697,3.211,1.297,4.8
	c5.214,13.649,20.504,20.495,34.162,15.281c9.14-3.494,15.122-11.531,16.578-20.539c-0.291-1.606-0.697-3.211-1.297-4.8
	C116.923,250.862,101.624,244.024,87.975,249.238z"/>
<circle style="fill:#EA9D2D;" cx="123.87" cy="371.01" r="26.459"/>
<path style="fill:#FBB540;" d="M114.443,355.111c-9.14,3.494-15.122,11.531-16.578,20.539c0.291,1.606,0.697,3.211,1.297,4.8
	c5.214,13.649,20.504,20.495,34.162,15.281c9.14-3.494,15.122-11.531,16.578-20.539c-0.291-1.606-0.697-3.211-1.297-4.8
	C143.391,356.734,128.092,349.897,114.443,355.111z"/>
<circle style="fill:#DC4D41;" cx="220.93" cy="432.77" r="26.459"/>
<path style="fill:#EA6B65;" d="M246.625,435.265c-3.494-14.187-17.831-22.86-32.018-19.366
	c-10.508,2.585-17.963,11.134-19.719,21.157c0.238,1.456,0.529,2.912,1.032,4.358c4.773,13.816,19.842,21.139,33.65,16.366
	c9.449-3.264,15.749-11.381,17.328-20.583C246.793,436.553,246.784,435.909,246.625,435.265z"/>
<path style="fill:#F7BA61;" d="M292.151,265.596l86.595-62.827c12.396-11.337,23.68-23.839,33.685-37.329l99.573-121.93
	l-26.001-25.277L374.158,111.03c-19.71,14.805-37.232,32.309-52.063,52.001l-49.09,83.657l-3.829,18.916h22.974v-0.008H292.151z"/>
<polygon style="fill:#B9B9B9;" points="296.368,206.88 273.005,246.689 269.176,265.596 292.151,265.596 327.53,239.93 
	326.065,238.298 "/>
<path style="fill:#F7E4BA;" d="M285.825,255.538c12.343,14.566,3.926,43.919-18.792,65.57s-63.488,12.828-63.488,12.828
	s-3.926-43.919,18.792-65.57S273.491,240.971,285.825,255.538z"/>
<path style="fill:#EA6B65;" d="M211.776,283.338c-10.728,22.357-8.232,50.607-8.232,50.607s25.357,5.426,47.219-2.876l-3.361-39.455
	L211.776,283.338z"/>
<g>
</g>
<g>
</g>
<g>
</g>
<g>
</g>
<g>
</g>
<g>
</g>
<g>
</g>
<g>
</g>
<g>
</g>
<g>
</g>
<g>
</g>
<g>
</g>
<g>
</g>
<g>
</g>
<g>
</g>
</svg>
