<?xml version="1.0" encoding="iso-8859-1"?>
<!-- Generator: Adobe Illustrator 19.0.0, SVG Export Plug-In . SVG Version: 6.00 Build 0)  -->
<svg version="1.1" id="Capa_1" xmlns="http://www.w3.org/2000/svg" xmlns:xlink="http://www.w3.org/1999/xlink" x="0px" y="0px"
	 viewBox="0 0 512 512" style="enable-background:new 0 0 512 512;" xml:space="preserve">
<g>
	<path style="fill:#B9B9B9;" d="M253.78,428.218c-118.058,0-214.109-96.042-214.109-214.109c0-52.084,18.925-102.279,53.295-141.359
		C133.636,26.522,192.256,0,253.78,0c5.139,0,9.309,4.161,9.309,9.309v37.236H244.47V18.832
		c-52.745,2.523-102.447,26.345-137.523,66.216c-31.381,35.672-48.659,81.51-48.659,129.061
		c0,107.79,87.692,195.491,195.491,195.491L253.78,428.218L253.78,428.218z"/>
	<rect x="244.47" y="372.36" style="fill:#B9B9B9;" width="18.618" height="139.64"/>
</g>
<rect x="244.47" y="372.36" style="fill:#62666A;" width="18.618" height="27.927"/>
<circle style="fill:#8ACED8;" cx="253.78" cy="214.11" r="167.56"/>
<path style="fill:#B9B9B9;" d="M384.107,512H123.452c-10.287,0-18.618-8.332-18.618-18.618l0,0c0-10.287,8.332-18.618,18.618-18.618
	h260.655c10.287,0,18.618,8.332,18.618,18.618l0,0C402.725,503.668,394.393,512,384.107,512z"/>
<g>
	<path style="fill:#F9E0A0;" d="M439.691,155.313C418.625,82.842,355.277,45.68,354.634,45.307l9.29-16.123
		c2.867,1.648,70.507,41.342,93.649,120.934L439.691,155.313z"/>
	<path style="fill:#F9E0A0;" d="M472.329,220.346l-18.618-0.056c0.056-18.646-6.153-40.941-6.218-41.174l17.929-5.036
		C465.701,175.095,472.394,199.14,472.329,220.346z"/>
</g>
<path style="fill:#79A73A;" d="M311.189,316.509l-35.682,10.864L263.2,381.198c35.57-1.983,68.161-14.95,94.404-35.728l-1.424-1.033
	L311.189,316.509z"/>
<path style="fill:#89B140;" d="M285.309,324.385l-12.707,55.92c31.893-3.565,61.096-15.909,85.001-34.835l-1.424-1.033
	l-44.991-27.927L285.309,324.385z"/>
<path style="fill:#79A73A;" d="M187.061,214.109l31.027-18.618l-16.291-24.045l3.882-41.118l48.1-13.964l18.339-68.766
	c-6.032-0.661-12.139-1.052-18.339-1.052c-57.856,0-108.851,29.324-138.966,73.905l30.357,53.313L187.061,214.109z"/>
<path style="fill:#89B140;" d="M272.118,47.597c-6.032-0.661-12.139-1.052-18.339-1.052c-51.544,0-97.606,23.31-128.344,59.913
	l28.374,57.996l45.512,42.291l18.776-11.255l-16.291-24.045l3.873-41.118l1.555-0.447v-8.862l48.584-12.297L272.118,47.597z"/>
<path style="fill:#79A73A;" d="M356.803,82.143l-0.624,1.638l-34.136,74.231l-40.336,23.273l-12.409,29.482l31.027,40.578h51.2
	l26.373,41.649l23.357,0.698c12.809-23.673,20.089-50.781,20.089-79.583C421.343,160.461,396.032,112.817,356.803,82.143z"/>
<path style="fill:#89B140;" d="M281.707,205.656l27.927,36.38h55.855l27.927,46.545h10.408c11.171-22.444,17.52-47.7,17.52-74.473
	c0-53.648-25.311-101.292-64.54-131.966l-0.624,1.638l-34.136,74.231l-23.757,13.703L281.707,205.656z"/>
<polygon style="fill:#79A73A;" points="146.725,245.136 154.815,307.2 216.543,335.127 232.061,299.446 197.925,248.478 "/>
<polygon style="fill:#89B140;" points="158.994,245.937 165.129,300.451 220.686,325.585 232.061,299.446 197.925,248.478 "/>
<path style="fill:#6C7175;" d="M384.107,474.764H263.089v-8.145H244.47v8.145H123.452c-10.287,0-18.618,8.332-18.618,18.618h297.891
	C402.725,483.095,394.393,474.764,384.107,474.764z"/>
<rect x="244.47" y="456.14" style="fill:#62666A;" width="18.618" height="18.618"/>
<rect x="244.47" y="27.927" style="fill:#6C7175;" width="18.618" height="18.618"/>
<path style="fill:#62666A;" d="M244.47,409.125c-9.29-0.438-18.432-1.396-27.35-3.091v18.981c8.946,1.555,18.06,2.569,27.35,2.97
	V409.125z"/>
<g>
</g>
<g>
</g>
<g>
</g>
<g>
</g>
<g>
</g>
<g>
</g>
<g>
</g>
<g>
</g>
<g>
</g>
<g>
</g>
<g>
</g>
<g>
</g>
<g>
</g>
<g>
</g>
<g>
</g>
</svg>
