<?xml version="1.0" encoding="iso-8859-1"?>
<!-- Generator: Adobe Illustrator 19.0.0, SVG Export Plug-In . SVG Version: 6.00 Build 0)  -->
<svg version="1.1" id="Capa_1" xmlns="http://www.w3.org/2000/svg" xmlns:xlink="http://www.w3.org/1999/xlink" x="0px" y="0px"
	 viewBox="0 0 512 512" style="enable-background:new 0 0 512 512;" xml:space="preserve">
<path style="fill:#EA6B65;" d="M245.935,7.193c-0.104-0.573-0.13-1.154-0.338-1.683c-0.217-0.538-0.573-0.972-0.885-1.449
	c-0.295-0.451-0.529-0.946-0.902-1.336c-0.399-0.416-0.902-0.685-1.371-1.015c-0.443-0.312-0.833-0.677-1.336-0.902
	c-0.529-0.234-1.119-0.295-1.701-0.425c-0.495-0.113-0.946-0.338-1.466-0.364c-0.104,0-0.243,0-0.347,0
	c-0.009,0-0.017-0.009-0.035-0.009c-0.009,0-0.017,0.009-0.026,0.009C236.416,0,235.15,0,233.909,0l-1.536,0.017
	c-32.503,0-65.926,13.354-72.009,36.052c-26.62,5.119-42.429,20.33-42.429,41.77c0,10.837,6.074,18.82,12.868,24.477
	c-14.889,7.861-23.401,20.72-23.401,36.573c0,16.382,8.234,29.18,23.046,36.928c-6.655,5.631-12.512,13.527-12.512,24.174
	c0,21.44,15.809,36.651,42.421,41.77c6.082,22.698,39.505,36.052,72.009,36.052l1.536,0.017c0.642,0.009,1.302,0.009,1.952,0.009
	c0.738,0,1.449-0.009,2.082-0.035c4.633-0.2,8.295-4.026,8.295-8.668V8.694C246.239,8.165,246.03,7.696,245.935,7.193z"/>
<g>
	<path style="fill:#C7463B;" d="M210.993,193.336c2.976,0,5.866-1.527,7.479-4.269c2.43-4.13,1.059-9.449-3.072-11.879
		c-0.121-0.069-11.28-7.054-10.612-15.887c0.364-4.781-3.219-8.946-7.991-9.31c-4.876-0.364-8.946,3.219-9.31,7.991
		c-1.501,19.783,18.256,31.662,19.098,32.156C207.983,192.946,209.501,193.336,210.993,193.336z"/>
	<path style="fill:#C7463B;" d="M196.147,125.892c0.217,0,0.443-0.009,0.668-0.026c4.772-0.364,8.356-4.529,7.991-9.31
		c-0.659-8.746,10.36-15.731,10.646-15.905c4.104-2.447,5.466-7.748,3.037-11.861c-2.438-4.139-7.774-5.501-11.879-3.072
		c-0.85,0.503-20.599,12.39-19.098,32.156C187.852,122.429,191.653,125.892,196.147,125.892z"/>
	<path style="fill:#C7463B;" d="M246.239,269.154V8.694c0-4.798-3.879-8.677-8.677-8.677c-0.182,0-0.338,0.095-0.521,0.104
		c-3.393-0.148-6.82-0.095-10.247,0.061c-0.885,0.043-1.761,0.061-2.646,0.113c-1.319,0.087-2.629,0.234-3.939,0.364
		c-0.876,0.087-1.753,0.165-2.629,0.269c-1.345,0.165-2.672,0.373-4,0.59c-0.816,0.13-1.64,0.252-2.447,0.399
		c-1.371,0.252-2.725,0.529-4.078,0.824c-0.72,0.156-1.449,0.312-2.161,0.486c-1.423,0.338-2.82,0.711-4.208,1.102
		c-0.599,0.182-1.18,0.356-1.77,0.529c-1.475,0.443-2.933,0.92-4.364,1.423c-0.416,0.148-0.824,0.304-1.232,0.451
		c-1.562,0.573-3.098,1.18-4.59,1.822c-0.165,0.069-0.33,0.148-0.495,0.226c-14.039,6.187-24.651,15.471-27.852,27.289l0,0
		c-26.629,5.119-42.438,20.33-42.438,41.779c0,10.837,6.074,18.82,12.868,24.477c-14.889,7.861-23.401,20.72-23.401,36.573
		c0,16.382,8.234,29.18,23.046,36.928c-6.655,5.631-12.512,13.527-12.512,24.174c0,21.44,15.809,36.651,42.421,41.77
		c6.082,22.698,39.505,36.052,72.009,36.052l1.536,0.017c0.642,0.009,1.302,0.009,1.952,0.009c0.599,0,1.154-0.009,1.692-0.026
		h0.009h0.009c0.113,0,0.26,0,0.373-0.009c0.599-0.026,1.128-0.269,1.692-0.408c0.477-0.121,0.989-0.148,1.432-0.347
		c0.573-0.252,1.033-0.668,1.527-1.033c0.39-0.286,0.824-0.486,1.163-0.833c0.46-0.469,0.755-1.067,1.102-1.631
		c0.226-0.373,0.547-0.685,0.712-1.093C245.996,271.453,246.239,270.334,246.239,269.154z M176.642,234.334
		c0-9.284,2.967-12.616,4.208-13.033c4.746-0.625,8.095-4.989,7.453-9.744c-0.625-4.755-4.989-8.104-9.744-7.453
		c-0.677,0.087-14.369,2.187-18.239,20.078c-11.774-2.794-25.033-9.249-25.033-24.174c0-6.082,5.857-12.078,17.423-17.839
		l6.603,0.121c4.694-0.252,8.746-3.74,8.833-8.521s-3.74-8.746-8.521-8.833l-8.677-0.156c-0.043,0-0.087,0.026-0.13,0.026
		c-12.26-2.716-26.056-9.388-26.056-25.909c0-12.876,9.666-22.022,27.167-25.848l7.74-0.182c4.79-0.121,8.581-4.095,8.477-8.876
		c-0.121-4.79-4.052-8.538-8.876-8.477l-6.577,0.156c-11.549-5.753-17.397-11.748-17.397-17.822
		c0-14.933,13.267-21.38,25.033-24.174l0,0c2.907,13.414,11.288,17.944,15.61,19.401c0.026,0.009,0.052,0.017,0.078,0.026
		c0.694,0.226,1.267,0.39,1.701,0.486c0.052,0.009,0.061,0.009,0.104,0.026c0.382,0.078,0.668,0.13,0.746,0.139
		c0.399,0.052,0.79,0.078,1.171,0.078c4.321,0,8.252-3.124,8.833-7.488c0.633-4.746-2.447-9.067-7.202-9.692
		c-1.753-0.512-4.72-3.835-4.72-13.128c0-0.85,0.104-1.701,0.295-2.534c0.069-0.295,0.2-0.59,0.295-0.885
		c0.165-0.538,0.312-1.067,0.555-1.597c0.165-0.364,0.399-0.711,0.59-1.067c0.252-0.451,0.477-0.902,0.772-1.336
		c0.269-0.399,0.599-0.781,0.911-1.163c0.304-0.382,0.59-0.772,0.937-1.154c0.382-0.416,0.824-0.824,1.258-1.232
		c0.347-0.33,0.668-0.659,1.041-0.98c0.512-0.434,1.067-0.859,1.631-1.284c0.356-0.269,0.694-0.547,1.076-0.807
		c0.642-0.451,1.336-0.885,2.03-1.319c0.347-0.217,0.677-0.434,1.041-0.642c0.79-0.46,1.623-0.902,2.473-1.336
		c0.312-0.165,0.625-0.33,0.946-0.486c0.928-0.451,1.9-0.894,2.898-1.319c0.278-0.121,0.547-0.243,0.833-0.356
		c1.076-0.443,2.195-0.868,3.341-1.275c0.217-0.078,0.434-0.156,0.659-0.234c1.232-0.425,2.499-0.824,3.792-1.197
		c0.156-0.043,0.304-0.087,0.46-0.13c1.362-0.39,2.759-0.746,4.182-1.085c0.113-0.026,0.217-0.052,0.33-0.078
		c1.475-0.338,2.985-0.651,4.521-0.928c0.061-0.009,0.13-0.026,0.191-0.035c1.579-0.286,3.193-0.529,4.833-0.746
		c0.017,0,0.035,0,0.052-0.009c1.666-0.217,3.358-0.39,5.076-0.529c0.009,0,0.017,0,0.017,0c1.718-0.139,3.462-0.243,5.215-0.295
		l0,0V33.12c-2.725,0.729-5.102,2.629-6.065,5.492c-0.043,0.13-4.486,12.573-13.232,13.831c-4.746,0.677-8.043,5.076-7.367,9.822
		c0.616,4.33,4.33,7.445,8.581,7.445c0.408,0,0.824-0.026,1.241-0.087c7.193-1.033,12.694-4.633,16.842-8.807v156.252
		c-4.148-4.174-9.657-7.774-16.842-8.807c-4.755-0.642-9.145,2.62-9.822,7.367c-0.677,4.746,2.62,9.145,7.367,9.822
		c8.711,1.249,13.154,13.588,13.232,13.831c0.954,2.898,3.315,4.894,6.065,5.605v15.549
		C200.677,259.514,176.642,247.714,176.642,234.334z"/>
</g>
<path style="fill:#EA6B65;" d="M379.375,175.826c14.803-7.74,23.046-20.547,23.046-36.928c0-15.852-8.512-28.72-23.401-36.573
	c6.803-5.649,12.868-13.631,12.868-24.477c0-21.44-15.809-36.651-42.429-41.77C343.377,13.38,309.962,0.026,277.45,0.026L275.922,0
	c-1.232,0-2.508,0-3.627,0.026c-0.009,0-0.017-0.009-0.026-0.009s-0.017,0.009-0.035,0.009c-0.104,0-0.252,0-0.347,0
	c-0.529,0.026-0.972,0.252-1.466,0.364c-0.573,0.13-1.171,0.182-1.692,0.425c-0.503,0.226-0.894,0.59-1.336,0.902
	c-0.469,0.33-0.972,0.599-1.371,1.015c-0.373,0.39-0.607,0.885-0.902,1.336c-0.312,0.477-0.668,0.902-0.885,1.44
	c-0.208,0.529-0.234,1.119-0.338,1.692c-0.095,0.503-0.304,0.972-0.304,1.501v260.451c0,4.642,3.662,8.469,8.295,8.668
	c0.633,0.026,1.345,0.035,2.082,0.035c0.642,0,1.302,0,1.952-0.009l1.536-0.017c32.503,0,65.926-13.354,72.009-36.052
	c26.62-5.119,42.421-20.33,42.421-41.77C391.887,189.354,386.03,181.458,379.375,175.826z"/>
<path style="fill:#6FBBC6;" d="M308.061,512H203.939v-0.538c0-28.755,23.306-52.061,52.061-52.061l0,0
	c28.755,0,52.061,23.306,52.061,52.061V512z"/>
<rect x="246.14" y="295.79" style="fill:#FBB540;" width="17.354" height="33.987"/>
<circle style="fill:#6FBBC6;" cx="254.91" cy="399.22" r="34.707"/>
<g>
	<path style="fill:#AAC16B;" d="M464.243,512H360.121v-0.538c0-28.755,23.306-52.061,52.061-52.061l0,0
		c28.755,0,52.061,23.306,52.061,52.061V512z"/>
	<circle style="fill:#AAC16B;" cx="411.1" cy="399.22" r="34.707"/>
</g>
<g>
	<path style="fill:#F27E55;" d="M151.879,512H47.757v-0.538c0-28.755,23.306-52.061,52.061-52.061l0,0
		c28.755,0,52.061,23.306,52.061,52.061V512z"/>
	<circle style="fill:#F27E55;" cx="98.73" cy="399.22" r="34.707"/>
</g>
<g>
	<path style="fill:#FBB540;" d="M107.41,329.787H90.056v-69.414c0-4.798,3.879-8.677,8.677-8.677h34.716v17.354H107.41V329.787z"/>
	<path style="fill:#FBB540;" d="M419.783,329.787h-17.354V269.05H376.39v-17.354h34.716c4.798,0,8.677,3.879,8.677,8.677
		L419.783,329.787L419.783,329.787z"/>
</g>
<g>
	<path style="fill:#C7463B;" d="M379.375,175.826c14.803-7.74,23.046-20.547,23.046-36.928c0-15.852-8.512-28.72-23.401-36.573
		c6.803-5.649,12.868-13.631,12.868-24.477c0-21.44-15.809-36.651-42.429-41.77C343.377,13.38,309.962,0.026,277.45,0.026L275.922,0
		c-1.232,0-2.508,0-3.627,0.026c-0.009,0-0.017-0.009-0.026-0.009s-0.017,0.009-0.035,0.009c-0.104,0-0.252,0-0.347,0
		c-0.529,0.026-0.972,0.252-1.466,0.364c-0.573,0.13-1.171,0.182-1.692,0.425c-0.503,0.226-0.894,0.59-1.336,0.902
		c-0.469,0.33-0.972,0.599-1.371,1.015c-0.373,0.39-0.607,0.885-0.902,1.336c-0.312,0.477-0.668,0.902-0.885,1.44
		c-0.208,0.529-0.234,1.119-0.338,1.692c-0.095,0.503-0.304,0.972-0.304,1.501v260.451c0,4.642,3.662,8.469,8.295,8.668
		c0.633,0.026,1.345,0.035,2.082,0.035c0.642,0,1.302,0,1.952-0.009l1.536-0.017c32.503,0,65.926-13.354,72.009-36.052
		c26.62-5.119,42.421-20.33,42.421-41.77C391.887,189.354,386.03,181.458,379.375,175.826z M349.501,224.174
		c-3.87-17.883-17.562-19.983-18.239-20.078c-4.902-0.599-9.371,2.672-9.996,7.41c-0.633,4.746,2.447,9.067,7.202,9.692
		c1.753,0.512,4.72,3.835,4.72,13.128c0,13.38-24.035,25.171-52.243,26.082v-15.575c2.742-0.72,5.093-2.698,6.065-5.579
		c0.043-0.13,4.486-12.573,13.232-13.831c4.746-0.677,8.043-5.076,7.367-9.822c-0.677-4.746-5.067-8.043-9.822-7.358
		c-7.193,1.033-12.694,4.633-16.842,8.807V60.798c4.147,4.174,9.657,7.774,16.842,8.807c0.416,0.061,0.833,0.087,1.241,0.087
		c4.252,0,7.965-3.115,8.581-7.445c0.677-4.746-2.62-9.145-7.367-9.822c-8.711-1.249-13.154-13.588-13.232-13.831
		c-0.954-2.889-3.323-4.781-6.065-5.501V17.466c28.208,0.911,52.243,12.677,52.243,26.048c0,9.163-2.889,12.529-4.651,13.102
		c-4.521,0.842-7.636,5.076-7.02,9.675c0.573,4.364,4.304,7.531,8.59,7.531c0.382,0,0.764-0.026,1.154-0.078
		c0.677-0.087,14.369-2.187,18.239-20.078c11.774,2.794,25.033,9.249,25.033,24.174c0,6.074-5.848,12.069-17.397,17.822
		l-6.577-0.156c-5.145-0.035-8.772,3.688-8.876,8.477s3.688,8.764,8.477,8.876l7.74,0.182c17.51,3.826,27.167,12.972,27.167,25.848
		c0,16.495-13.753,23.167-26.004,25.892c-0.061,0-0.121-0.017-0.182-0.017l-8.677,0.156c-4.79,0.087-8.607,4.043-8.521,8.833
		s3.965,8.547,8.833,8.521l6.603-0.121c11.566,5.761,17.423,11.748,17.423,17.839C374.534,214.933,361.275,221.38,349.501,224.174z"
		/>
	<path style="fill:#C7463B;" d="M313.015,151.983c-4.772,0.364-8.356,4.529-7.991,9.31c0.659,8.746-10.351,15.722-10.646,15.905
		c-4.104,2.438-5.466,7.748-3.037,11.861c1.623,2.742,4.512,4.269,7.479,4.269c1.501,0,3.02-0.39,4.399-1.206
		c0.842-0.495,20.599-12.373,19.098-32.156C321.97,155.202,317.883,151.636,313.015,151.983z"/>
	<path style="fill:#C7463B;" d="M303.228,85.718c-4.121-2.421-9.388-1.067-11.835,3.046c-2.447,4.095-1.102,9.414,2.985,11.879
		c0.121,0.069,11.323,7.098,10.655,15.913c-0.364,4.781,3.219,8.946,7.991,9.31c0.226,0.017,0.451,0.026,0.668,0.026
		c4.495,0,8.295-3.462,8.642-8.017C323.826,98.108,304.078,86.221,303.228,85.718z"/>
</g>
<g>
</g>
<g>
</g>
<g>
</g>
<g>
</g>
<g>
</g>
<g>
</g>
<g>
</g>
<g>
</g>
<g>
</g>
<g>
</g>
<g>
</g>
<g>
</g>
<g>
</g>
<g>
</g>
<g>
</g>
</svg>
