<?xml version="1.0" encoding="iso-8859-1"?>
<!-- Generator: Adobe Illustrator 19.0.0, SVG Export Plug-In . SVG Version: 6.00 Build 0)  -->
<svg version="1.1" id="Capa_1" xmlns="http://www.w3.org/2000/svg" xmlns:xlink="http://www.w3.org/1999/xlink" x="0px" y="0px"
	 viewBox="0 0 512 512" style="enable-background:new 0 0 512 512;" xml:space="preserve">
<path style="fill:#F9E0A0;" d="M456.006,247.26l-176.27,206.908c-6.281,7.375-13.017,14.412-20.583,20.474
	c-62.652,50.154-154.337,46.189-212.413-11.878l0,0c-53.419-53.418-61.048-135.277-22.89-196.817
	c9.189-14.822,21.34-27.575,34.804-38.65L253.519,67.089c3.418-2.808,6.682-5.816,9.89-8.86
	C325.35-0.594,409.807-21.788,470.544,38.958l0,0c61.139,61.139,51.385,139.215-7.849,200.991
	C460.418,242.328,458.148,244.753,456.006,247.26z"/>
<path style="fill:#D68F29;" d="M137.076,226.631l19.043,22.88c9.845,0.401,14.813,0.602,24.658,0.994l20.82-21.276
	c14.193,6.563,14.23,6.582,28.432,13.145l-2.716,29.644c6.682,7.238,10.055,10.893,16.727,18.14l29.772-0.319
	c5.396,14.676,5.415,14.722,10.811,29.398l-22.88,19.043c-0.401,9.845-0.602,14.813-0.994,24.658l21.276,20.82
	c-6.563,14.193-6.582,14.23-13.145,28.432l-29.644-2.716c-7.238,6.682-10.893,10.055-18.14,16.727l0.319,29.772
	c-14.676,5.396-14.722,5.415-29.398,10.811l-19.043-22.88c-9.845-0.401-14.813-0.602-24.658-0.994l-20.82,21.276
	c-14.193-6.563-14.23-6.582-28.432-13.145l2.716-29.644c-6.682-7.238-10.055-10.893-16.727-18.14l-29.772,0.319
	c-5.396-14.676-5.415-14.722-10.811-29.398l22.88-19.043c0.401-9.845,0.602-14.813,0.994-24.658l-21.276-20.82
	c6.563-14.193,6.582-14.23,13.145-28.432l29.644,2.716c7.238-6.682,10.893-10.055,18.14-16.727l-0.319-29.772
	C122.363,232.037,122.399,232.028,137.076,226.631z"/>
<path style="fill:#B47923;" d="M380.792,43.26l8.122,22.652c7.365,3.026,11.085,4.558,18.45,7.584l21.704-10.392
	c8.961,8.915,8.988,8.933,17.949,17.848l-10.273,21.759c3.063,7.347,4.613,11.057,7.684,18.405l22.689,8.004
	c0.036,12.643,0.036,12.671,0.073,25.314l-22.652,8.122c-3.026,7.365-4.558,11.085-7.584,18.45l10.392,21.704
	c-8.915,8.961-8.933,8.988-17.848,17.949l-21.759-10.273c-7.347,3.063-11.057,4.613-18.405,7.685l-8.004,22.689
	c-12.643,0.036-12.671,0.036-25.314,0.073l-8.122-22.652c-7.365-3.026-11.085-4.558-18.45-7.584l-21.704,10.392
	c-8.961-8.915-8.988-8.933-17.949-17.848l10.273-21.759c-3.063-7.347-4.613-11.057-7.684-18.405l-22.689-8.004
	c-0.036-12.643-0.036-12.671-0.073-25.314l22.652-8.122c3.026-7.365,4.558-11.085,7.584-18.45l-10.392-21.704
	c8.915-8.961,8.933-8.988,17.848-17.949l21.759,10.273c7.347-3.063,11.057-4.613,18.405-7.685l8.004-22.689
	C368.112,43.297,368.149,43.297,380.792,43.26z"/>
<circle style="fill:#F4CA62;" cx="165.18" cy="345.129" r="41.804"/>
<path style="fill:#F9E0A0;" d="M187.257,333.977c-4.266-15.405-16.673-26.217-31.258-29.48c-0.647,0.146-1.304,0.155-1.951,0.337
	c-22.251,6.153-35.296,29.188-29.143,51.44c4.266,15.405,16.673,26.217,31.258,29.48c0.647-0.146,1.304-0.155,1.951-0.337
	C180.366,379.264,193.42,356.238,187.257,333.977z"/>
<circle style="fill:#F4CA62;" cx="368.37" cy="142.049" r="31.358"/>
<path style="fill:#F9E0A0;" d="M372.406,164.161c12.215-12.279,12.16-32.133-0.118-44.348c-3.756-3.737-8.259-6.18-12.999-7.621
	c-4.795,1.459-9.344,3.947-13.127,7.748c-12.215,12.279-12.16,32.133,0.119,44.348c3.756,3.737,8.259,6.18,12.999,7.621
	C364.074,170.451,368.623,167.963,372.406,164.161z"/>
<g>
</g>
<g>
</g>
<g>
</g>
<g>
</g>
<g>
</g>
<g>
</g>
<g>
</g>
<g>
</g>
<g>
</g>
<g>
</g>
<g>
</g>
<g>
</g>
<g>
</g>
<g>
</g>
<g>
</g>
</svg>
