<?xml version="1.0" encoding="iso-8859-1"?>
<!-- Generator: Adobe Illustrator 16.0.0, SVG Export Plug-In . SVG Version: 6.00 Build 0)  -->
<!DOCTYPE svg PUBLIC "-//W3C//DTD SVG 1.1//EN" "http://www.w3.org/Graphics/SVG/1.1/DTD/svg11.dtd">
<svg version="1.1" id="Capa_1" xmlns="http://www.w3.org/2000/svg" xmlns:xlink="http://www.w3.org/1999/xlink" x="0px" y="0px"
	 width="241.237px" height="241.237px" viewBox="0 0 241.237 241.237" style="enable-background:new 0 0 241.237 241.237;"
	 xml:space="preserve">
<g>
	<path d="M185.561,31.924c-17.732-13.483-40.042-20.404-62.174-21.186C101.155,9.956,78.536,15.9,59.774,27.893
		c-20.431,13.061-35.074,33.1-42.536,56.053c-0.241,0.737-0.462,1.478-0.687,2.22c-2.016,6.649,8.359,9.473,10.359,2.856
		c6.632-21.958,20.527-40.843,39.953-52.901c18.279-11.341,39.715-15.905,61.074-14.389c18.614,1.315,37.785,8.203,52.673,19.84
		c10.206,7.977,18.241,17.958,24.115,29.171c3.849-0.269,7.697-0.536,11.538-0.801C209.241,55.108,198.927,42.071,185.561,31.924z"
		/>
	<path d="M240.633,71.686c-0.021-0.07-0.073-0.118-0.101-0.188c-0.047-0.092-0.094-0.176-0.146-0.257
		c-0.74-1.62-2.23-2.822-4.614-2.657c-0.226,0.016-0.446,0.031-0.672,0.05c-0.037,0.005-0.079,0-0.11,0.005
		c-6.242,0.433-12.482,0.869-18.726,1.299c-3.841,0.27-7.689,0.538-11.538,0.8c-5.433,0.379-10.86,0.759-16.293,1.135
		c-3.989,0.281-6.81,4.378-4.641,8.092c8.956,15.399,17.911,30.806,26.877,46.203c2.557,4.404,8.137,2.793,9.827-1.281
		c6.817-16.503,13.637-33,20.462-49.502C241.462,74.159,241.241,72.836,240.633,71.686z M223.426,89.86
		c-1.088,2.64-2.179,5.273-3.271,7.913c-1.879,4.546-3.753,9.094-5.638,13.643c-5.701-9.801-11.401-19.607-17.102-29.404
		c3.999-0.281,7.999-0.559,11.989-0.832c3.722-0.261,7.448-0.518,11.165-0.775c2.324-0.163,4.641-0.322,6.965-0.485
		C226.171,83.227,224.8,86.542,223.426,89.86z"/>
	<path d="M214.154,151.081c-6.378,22.021-20.032,41.112-39.307,53.387c-18.147,11.558-39.54,16.388-60.894,15.128
		c-19.085-1.135-37.93-7.926-53.481-19.633c-10.029-7.549-18.035-17.433-23.953-28.504c-3.833,0.314-7.67,0.619-11.501,0.935
		c7.186,14.74,17.624,27.665,31.079,37.643c17.89,13.276,40.273,19.976,62.416,20.5c22.24,0.53,44.802-5.638,63.416-17.854
		c20.272-13.296,34.729-33.466,41.932-56.509c0.23-0.742,0.44-1.486,0.661-2.227C226.448,147.264,216.076,144.436,214.154,151.081z"
		/>
	<path d="M52.764,170.141c3.932-0.32,6.872-4.361,4.641-8.09c-9.14-15.296-18.271-30.598-27.41-45.895
		c-2.58-4.322-8.165-2.871-9.827,1.283c-6.632,16.58-13.26,33.158-19.893,49.735c-0.496,1.235-0.28,2.562,0.323,3.706
		c0.622,1.88,2.231,3.312,4.863,3.098c0.221-0.016,0.436-0.037,0.651-0.053c0.042-0.005,0.091-0.005,0.134-0.01
		c6.257-0.504,12.515-1.019,18.772-1.527c3.832-0.311,7.669-0.62,11.501-0.935C41.935,171.023,47.347,170.582,52.764,170.141z
		 M13.622,162.572c1.333-3.334,2.666-6.661,4-10.001c1.058-2.646,2.124-5.297,3.181-7.946c1.827-4.568,3.656-9.136,5.483-13.696
		c5.816,9.736,11.627,19.47,17.438,29.202c-3.994,0.33-7.995,0.65-11.987,0.977c-3.713,0.305-7.43,0.608-11.144,0.902
		C18.265,162.199,15.945,162.388,13.622,162.572z"/>
</g>
<g>
</g>
<g>
</g>
<g>
</g>
<g>
</g>
<g>
</g>
<g>
</g>
<g>
</g>
<g>
</g>
<g>
</g>
<g>
</g>
<g>
</g>
<g>
</g>
<g>
</g>
<g>
</g>
<g>
</g>
</svg>
