<?xml version="1.0" encoding="iso-8859-1"?>
<!-- Generator: Adobe Illustrator 19.0.0, SVG Export Plug-In . SVG Version: 6.00 Build 0)  -->
<svg version="1.1" id="Capa_1" xmlns="http://www.w3.org/2000/svg" xmlns:xlink="http://www.w3.org/1999/xlink" x="0px" y="0px"
	 viewBox="0 0 511.997 511.997" style="enable-background:new 0 0 511.997 511.997;" xml:space="preserve">
<rect x="177.81" y="443.72" style="fill:#6C7175;" width="136.55" height="17.07"/>
<g>
	<path style="fill:#B9B9B9;" d="M246.085,511.997c-4.719,0-8.534-3.815-8.534-8.534V401.051c0-4.719,3.815-8.534,8.534-8.534
		s8.534,3.815,8.534,8.534v102.412C254.619,508.182,250.804,511.997,246.085,511.997z"/>
	<path style="fill:#B9B9B9;" d="M134.43,504.171c-2.185,0-4.37-0.836-6.034-2.501c-3.337-3.337-3.337-8.731,0-12.068l94.048-94.048
		c3.337-3.337,8.731-3.337,12.068,0s3.337,8.731,0,12.068l-94.048,94.048C138.8,503.343,136.615,504.171,134.43,504.171z"/>
	<path style="fill:#B9B9B9;" d="M357.031,504.171c-2.185,0-4.37-0.836-6.034-2.501l-93.878-93.878
		c-3.337-3.337-3.337-8.731,0-12.068s8.731-3.337,12.068,0l93.878,93.878c3.337,3.337,3.337,8.731,0,12.068
		C361.401,503.343,359.216,504.171,357.031,504.171z"/>
</g>
<path style="fill:#6C7175;" d="M263.153,408.459h-34.137c-4.719,0-8.534-3.815-8.534-8.534v-25.782
	c0-6.358,1.263-12.554,3.661-17.905c0.572-1.272,1.451-2.39,2.552-3.252l14.15-11.009c3.047-2.364,7.288-2.407,10.361-0.094
	l13.877,10.403c1.109,0.828,1.997,1.92,2.594,3.166c2.629,5.539,4.02,11.999,4.02,18.682v25.782
	C271.688,404.644,267.873,408.459,263.153,408.459z"/>
<path style="fill:#62666A;" d="M271.602,372.375c-0.222-6.042-1.536-11.863-3.926-16.906c-0.589-1.246-1.485-2.338-2.594-3.166
	L251.205,341.9c-3.064-2.313-7.305-2.279-10.361,0.094l-14.15,11.009c-1.101,0.862-1.971,1.971-2.552,3.252
	c-2.168,4.848-3.269,10.42-3.482,16.138c9.533,10.736,25.117,14.79,39.01,8.765C264.425,379.092,268.385,376.02,271.602,372.375z"/>
<polygon style="fill:#EAEAE8;" points="135.138,341.31 49.795,375.448 27.606,322.501 115.1,286.955 "/>
<polygon style="fill:#B9B9B9;" points="129.446,281.22 63.561,307.89 85.119,361.323 149.237,335.669 "/>
<polygon style="fill:#6C7175;" points="112.164,350.502 149.237,335.669 129.446,281.22 90.154,297.128 "/>
<polygon style="fill:#B9B9B9;" points="277.781,315.707 331.428,298.639 297.291,196.227 109.535,273.036 116.363,290.104 
	136.854,341.328 143.673,358.379 211.947,336.659 "/>
<polygon style="fill:#1F6C8C;" points="303.768,193.581 152.088,255.634 184.697,345.33 211.947,336.659 277.781,315.707 
	339.954,295.925 "/>
<polygon style="fill:#3B869E;" points="305.586,306.866 270.365,207.245 152.088,255.634 184.697,345.33 211.947,336.659 
	277.781,315.707 "/>
<path style="fill:#FBB540;" d="M177.81,124.359c-30.314-9.883-52.623-22.548-55.627-53.561c-1.895-19.578,14.21-39.907,32.072-56.19
	c-12.656-7.433-27.848-15.464-43.602-14.534c-42.347,2.483-74.658,38.84-72.166,81.187c2.492,42.347,38.84,74.658,81.187,72.166
	C142.384,152.087,164.693,140.865,177.81,124.359z"/>
<g>
	<path style="fill:#EA9D2D;" d="M89.744,68.715c-4.711,0-8.577-3.815-8.577-8.534s3.781-8.534,8.492-8.534h0.085
		c4.719,0,8.534,3.815,8.534,8.534S94.455,68.715,89.744,68.715z"/>
	<path style="fill:#EA9D2D;" d="M140.694,106.181c-4.31-3.525-7.877-7.638-10.804-12.289c-1.417,0.717-2.705,1.681-3.576,3.141
		c-1.34,2.279-8.748,13.296-22.659,7.015c-4.301-1.954-9.362-0.026-11.291,4.259c-1.946,4.293-0.034,9.354,4.259,11.291
		c5.505,2.492,10.617,3.525,15.276,3.525C126.297,123.13,136.393,113.316,140.694,106.181z"/>
</g>
<g>
	<rect x="49.795" y="204.76" style="fill:#F9E0A0;" width="17.07" height="17.07"/>
	<rect x="49.795" y="238.9" style="fill:#F9E0A0;" width="17.07" height="17.07"/>
	<rect x="66.864" y="221.83" style="fill:#F9E0A0;" width="17.07" height="17.07"/>
	<rect x="32.726" y="221.83" style="fill:#F9E0A0;" width="17.07" height="17.07"/>
	<rect x="254.62" y="59.678" style="fill:#F9E0A0;" width="17.07" height="17.07"/>
	<rect x="254.62" y="93.81" style="fill:#F9E0A0;" width="17.07" height="17.07"/>
	<rect x="271.69" y="76.75" style="fill:#F9E0A0;" width="17.07" height="17.07"/>
	<rect x="237.55" y="76.75" style="fill:#F9E0A0;" width="17.07" height="17.07"/>
	<rect x="399.7" y="366.91" style="fill:#F9E0A0;" width="17.07" height="17.07"/>
	<rect x="399.7" y="401.05" style="fill:#F9E0A0;" width="17.07" height="17.07"/>
	<rect x="416.77" y="383.98" style="fill:#F9E0A0;" width="17.07" height="17.07"/>
	<rect x="382.63" y="383.98" style="fill:#F9E0A0;" width="17.07" height="17.07"/>
</g>
<circle style="fill:#B9B9B9;" cx="246.09" cy="332.78" r="34.13"/>
<circle style="fill:#6C7175;" cx="246.09" cy="332.78" r="12.801"/>
<path style="fill:#B9B9B9;" d="M340.133,315.707l-51.394-145.084h-0.358l98.802-35.998c35.469-12.921,74.675,5.564,87.255,41.161
	l2.731,7.724c1.109,3.132,2.21,6.256,3.311,9.371c12.417,35.119-5.786,73.668-40.777,86.419l-99.937,36.407H340.133z"/>
<path style="fill:#8ACED8;" d="M480.489,192.881c-1.101-3.107-2.202-6.239-3.311-9.371l-2.731-7.724
	c-9.985-28.232-36.723-45.633-65.057-45.206l52.887,135.022C483.587,247.433,489.125,217.315,480.489,192.881z"/>
<path style="fill:#3B869E;" d="M387.183,134.626l-65.552,23.888l51.232,145.143l66.849-24.357
	c10.651-3.883,15.413-5.863,22.565-13.698L409.39,130.58C402.007,130.7,394.514,131.955,387.183,134.626z"/>
<g>
</g>
<g>
</g>
<g>
</g>
<g>
</g>
<g>
</g>
<g>
</g>
<g>
</g>
<g>
</g>
<g>
</g>
<g>
</g>
<g>
</g>
<g>
</g>
<g>
</g>
<g>
</g>
<g>
</g>
</svg>
